<svg width="115" height="91" viewBox="0 0 115 91" fill="none" xmlns="http://www.w3.org/2000/svg">
<path d="M57.3615 33.5053V69.4895M57.3615 69.4895L69.3563 57.4948M57.3615 69.4895L45.3667 57.4948M15.3798 87.4816H99.3431C105.341 87.4816 111.338 82.1114 111.338 75.4869L111.338 27.5079C111.338 21.5105 105.341 15.5131 99.3431 15.5131C99.3431 15.5131 69.3563 15.5131 63.3589 15.5131C57.3615 15.5131 51.3641 3.51837 45.3667 3.51837C39.3694 3.51837 15.3798 3.51837 15.3798 3.51837C15.3798 3.51837 15.3798 3.51837 15.3798 3.51837C8.75533 3.51837 3.38509 8.88861 3.38509 15.5131V69.4895V75.4869C3.38509 82.1114 8.75533 87.4816 15.3798 87.4816Z" stroke="#0A2BA3" stroke-width="6" stroke-linecap="round" stroke-linejoin="round"/>
</svg>
