<svg width="459" height="388" viewBox="0 0 459 388" fill="none" xmlns="http://www.w3.org/2000/svg">
<rect x="2.93573" y="3.14539" width="452.781" height="381.905" rx="33" stroke="#949494" stroke-width="5" stroke-linecap="round" stroke-dasharray="30 30"/>
<path d="M49.2993 304.983V283.983H54.1293V297.663L64.1493 283.983H68.7093V304.983H63.9093V291.333L53.8893 304.983H49.2993ZM71.5379 304.953L71.7779 301.113C71.8979 301.133 72.0179 301.153 72.1379 301.173C72.2579 301.173 72.3679 301.173 72.4679 301.173C73.0279 301.173 73.4679 301.013 73.7879 300.693C74.1079 300.373 74.3479 299.943 74.5079 299.403C74.6679 298.843 74.7779 298.213 74.8379 297.513C74.9179 296.813 74.9779 296.083 75.0179 295.323L75.2579 288.843H89.0579V304.983H84.3779V291.543L85.4279 292.683H78.3479L79.3379 291.483L79.1279 295.533C79.0679 296.973 78.9479 298.293 78.7679 299.493C78.6079 300.693 78.3379 301.733 77.9579 302.613C77.5779 303.473 77.0679 304.143 76.4279 304.623C75.7879 305.083 74.9679 305.313 73.9679 305.313C73.6079 305.313 73.2279 305.283 72.8279 305.223C72.4279 305.163 71.9979 305.073 71.5379 304.953ZM93.5584 304.983V288.843H98.2084V298.443L106.068 288.843H110.358V304.983H105.708V295.383L97.8784 304.983H93.5584ZM123.353 304.983V288.843H139.403V304.983H134.723V291.633L135.773 292.683H126.953L128.003 291.633V304.983H123.353ZM151.78 305.223C149.94 305.223 148.32 304.863 146.92 304.143C145.54 303.423 144.47 302.443 143.71 301.203C142.95 299.943 142.57 298.513 142.57 296.913C142.57 295.293 142.94 293.863 143.68 292.623C144.44 291.363 145.47 290.383 146.77 289.683C148.07 288.963 149.54 288.603 151.18 288.603C152.76 288.603 154.18 288.943 155.44 289.623C156.72 290.283 157.73 291.243 158.47 292.503C159.21 293.743 159.58 295.233 159.58 296.973C159.58 297.153 159.57 297.363 159.55 297.603C159.53 297.823 159.51 298.033 159.49 298.233H146.38V295.503H157.03L155.23 296.313C155.23 295.473 155.06 294.743 154.72 294.123C154.38 293.503 153.91 293.023 153.31 292.683C152.71 292.323 152.01 292.143 151.21 292.143C150.41 292.143 149.7 292.323 149.08 292.683C148.48 293.023 148.01 293.513 147.67 294.153C147.33 294.773 147.16 295.513 147.16 296.373V297.093C147.16 297.973 147.35 298.753 147.73 299.433C148.13 300.093 148.68 300.603 149.38 300.963C150.1 301.303 150.94 301.473 151.9 301.473C152.76 301.473 153.51 301.343 154.15 301.083C154.81 300.823 155.41 300.433 155.95 299.913L158.44 302.613C157.7 303.453 156.77 304.103 155.65 304.563C154.53 305.003 153.24 305.223 151.78 305.223ZM172.678 305.223C171.318 305.223 170.128 304.923 169.108 304.323C168.088 303.723 167.288 302.813 166.708 301.593C166.148 300.353 165.868 298.793 165.868 296.913C165.868 295.013 166.138 293.453 166.678 292.233C167.218 291.013 167.998 290.103 169.018 289.503C170.038 288.903 171.258 288.603 172.678 288.603C174.198 288.603 175.558 288.953 176.758 289.653C177.978 290.333 178.938 291.293 179.638 292.533C180.358 293.773 180.718 295.233 180.718 296.913C180.718 298.613 180.358 300.083 179.638 301.323C178.938 302.563 177.978 303.523 176.758 304.203C175.558 304.883 174.198 305.223 172.678 305.223ZM163.138 310.803V288.843H167.608V292.143L167.518 296.943L167.818 301.713V310.803H163.138ZM171.868 301.383C172.648 301.383 173.338 301.203 173.938 300.843C174.558 300.483 175.048 299.973 175.408 299.313C175.788 298.633 175.978 297.833 175.978 296.913C175.978 295.973 175.788 295.173 175.408 294.513C175.048 293.853 174.558 293.343 173.938 292.983C173.338 292.623 172.648 292.443 171.868 292.443C171.088 292.443 170.388 292.623 169.768 292.983C169.148 293.343 168.658 293.853 168.298 294.513C167.938 295.173 167.758 295.973 167.758 296.913C167.758 297.833 167.938 298.633 168.298 299.313C168.658 299.973 169.148 300.483 169.768 300.843C170.388 301.203 171.088 301.383 171.868 301.383ZM191.888 305.223C190.048 305.223 188.428 304.863 187.028 304.143C185.648 303.423 184.578 302.443 183.818 301.203C183.058 299.943 182.678 298.513 182.678 296.913C182.678 295.293 183.048 293.863 183.788 292.623C184.548 291.363 185.578 290.383 186.878 289.683C188.178 288.963 189.648 288.603 191.288 288.603C192.868 288.603 194.288 288.943 195.548 289.623C196.828 290.283 197.838 291.243 198.578 292.503C199.318 293.743 199.688 295.233 199.688 296.973C199.688 297.153 199.678 297.363 199.658 297.603C199.638 297.823 199.618 298.033 199.598 298.233H186.488V295.503H197.138L195.338 296.313C195.338 295.473 195.168 294.743 194.828 294.123C194.488 293.503 194.018 293.023 193.418 292.683C192.818 292.323 192.118 292.143 191.318 292.143C190.518 292.143 189.808 292.323 189.188 292.683C188.588 293.023 188.118 293.513 187.778 294.153C187.438 294.773 187.268 295.513 187.268 296.373V297.093C187.268 297.973 187.458 298.753 187.838 299.433C188.238 300.093 188.788 300.603 189.488 300.963C190.208 301.303 191.048 301.473 192.008 301.473C192.868 301.473 193.618 301.343 194.258 301.083C194.918 300.823 195.518 300.433 196.058 299.913L198.548 302.613C197.808 303.453 196.878 304.103 195.758 304.563C194.638 305.003 193.348 305.223 191.888 305.223ZM206.169 304.983V291.603L207.219 292.683H200.709V288.843H216.279V292.683H209.769L210.819 291.603V304.983H206.169ZM228.433 304.983V301.833L228.133 301.143V295.503C228.133 294.503 227.823 293.723 227.203 293.163C226.603 292.603 225.673 292.323 224.413 292.323C223.553 292.323 222.703 292.463 221.863 292.743C221.043 293.003 220.343 293.363 219.763 293.823L218.083 290.553C218.963 289.933 220.023 289.453 221.263 289.113C222.503 288.773 223.763 288.603 225.043 288.603C227.503 288.603 229.413 289.183 230.773 290.343C232.133 291.503 232.813 293.313 232.813 295.773V304.983H228.433ZM223.513 305.223C222.253 305.223 221.173 305.013 220.273 304.593C219.373 304.153 218.683 303.563 218.203 302.823C217.723 302.083 217.483 301.253 217.483 300.333C217.483 299.373 217.713 298.533 218.173 297.813C218.653 297.093 219.403 296.533 220.423 296.133C221.443 295.713 222.773 295.503 224.413 295.503H228.703V298.233H224.923C223.823 298.233 223.063 298.413 222.643 298.773C222.243 299.133 222.043 299.583 222.043 300.123C222.043 300.723 222.273 301.203 222.733 301.563C223.213 301.903 223.863 302.073 224.683 302.073C225.463 302.073 226.163 301.893 226.783 301.533C227.403 301.153 227.853 300.603 228.133 299.883L228.853 302.043C228.513 303.083 227.893 303.873 226.993 304.413C226.093 304.953 224.933 305.223 223.513 305.223ZM247.889 301.143L246.869 302.223V288.843H251.549V302.223L250.469 301.143H257.909L256.859 302.223V288.843H261.509V304.983H236.879V288.843H241.529V302.223L240.479 301.143H247.889ZM259.409 308.193V303.903L260.459 304.983H256.739V301.143H263.759V308.193H259.409ZM266 304.983V288.843H270.65V298.443L278.51 288.843H282.8V304.983H278.15V295.383L270.32 304.983H266ZM290.749 304.983V291.603L291.799 292.683H285.289V288.843H300.859V292.683H294.349L295.399 291.603V304.983H290.749ZM310.57 305.223C308.73 305.223 307.11 304.863 305.71 304.143C304.33 303.423 303.26 302.443 302.5 301.203C301.74 299.943 301.36 298.513 301.36 296.913C301.36 295.293 301.73 293.863 302.47 292.623C303.23 291.363 304.26 290.383 305.56 289.683C306.86 288.963 308.33 288.603 309.97 288.603C311.55 288.603 312.97 288.943 314.23 289.623C315.51 290.283 316.52 291.243 317.26 292.503C318 293.743 318.37 295.233 318.37 296.973C318.37 297.153 318.36 297.363 318.34 297.603C318.32 297.823 318.3 298.033 318.28 298.233H305.17V295.503H315.82L314.02 296.313C314.02 295.473 313.85 294.743 313.51 294.123C313.17 293.503 312.7 293.023 312.1 292.683C311.5 292.323 310.8 292.143 310 292.143C309.2 292.143 308.49 292.323 307.87 292.683C307.27 293.023 306.8 293.513 306.46 294.153C306.12 294.773 305.95 295.513 305.95 296.373V297.093C305.95 297.973 306.14 298.753 306.52 299.433C306.92 300.093 307.47 300.603 308.17 300.963C308.89 301.303 309.73 301.473 310.69 301.473C311.55 301.473 312.3 301.343 312.94 301.083C313.6 300.823 314.2 300.433 314.74 299.913L317.23 302.613C316.49 303.453 315.56 304.103 314.44 304.563C313.32 305.003 312.03 305.223 310.57 305.223ZM338.133 305.223C336.393 305.223 334.843 304.873 333.483 304.173C332.123 303.453 331.053 302.463 330.273 301.203C329.513 299.943 329.133 298.513 329.133 296.913C329.133 295.293 329.513 293.863 330.273 292.623C331.053 291.363 332.123 290.383 333.483 289.683C334.843 288.963 336.393 288.603 338.133 288.603C339.833 288.603 341.313 288.963 342.573 289.683C343.833 290.383 344.763 291.393 345.363 292.713L341.733 294.663C341.313 293.903 340.783 293.343 340.143 292.983C339.523 292.623 338.843 292.443 338.103 292.443C337.303 292.443 336.583 292.623 335.943 292.983C335.303 293.343 334.793 293.853 334.413 294.513C334.053 295.173 333.873 295.973 333.873 296.913C333.873 297.853 334.053 298.653 334.413 299.313C334.793 299.973 335.303 300.483 335.943 300.843C336.583 301.203 337.303 301.383 338.103 301.383C338.843 301.383 339.523 301.213 340.143 300.873C340.783 300.513 341.313 299.943 341.733 299.163L345.363 301.143C344.763 302.443 343.833 303.453 342.573 304.173C341.313 304.873 339.833 305.223 338.133 305.223ZM348.207 304.983V288.843H352.857V294.783H357.597V298.833H352.857V304.983H348.207ZM363.477 305.223C361.817 305.223 360.337 304.863 359.037 304.143C357.737 303.423 356.717 302.443 355.977 301.203C355.237 299.943 354.867 298.513 354.867 296.913C354.867 295.293 355.237 293.863 355.977 292.623C356.717 291.363 357.737 290.383 359.037 289.683C360.337 288.963 361.817 288.603 363.477 288.603C365.137 288.603 366.607 288.963 367.887 289.683C369.187 290.383 370.207 291.363 370.947 292.623C371.687 293.863 372.057 295.293 372.057 296.913C372.057 298.513 371.687 299.943 370.947 301.203C370.207 302.463 369.187 303.453 367.887 304.173C366.607 304.873 365.137 305.223 363.477 305.223ZM363.477 301.383C364.237 301.383 364.907 301.203 365.487 300.843C366.087 300.483 366.557 299.973 366.897 299.313C367.257 298.633 367.437 297.833 367.437 296.913C367.437 295.973 367.257 295.173 366.897 294.513C366.557 293.853 366.087 293.343 365.487 292.983C364.907 292.623 364.237 292.443 363.477 292.443C362.737 292.443 362.057 292.623 361.437 292.983C360.837 293.343 360.357 293.853 359.997 294.513C359.657 295.173 359.487 295.973 359.487 296.913C359.487 297.833 359.657 298.633 359.997 299.313C360.357 299.973 360.837 300.483 361.437 300.843C362.057 301.203 362.737 301.383 363.477 301.383ZM386.172 302.883V292.683H380.892L380.802 294.753C380.762 295.613 380.712 296.433 380.652 297.213C380.592 297.993 380.472 298.703 380.292 299.343C380.132 299.963 379.892 300.493 379.572 300.933C379.252 301.353 378.822 301.643 378.282 301.803L373.662 301.143C374.242 301.143 374.712 300.973 375.072 300.633C375.432 300.273 375.712 299.783 375.912 299.163C376.112 298.523 376.262 297.803 376.362 297.003C376.462 296.183 376.532 295.323 376.572 294.423L376.782 288.843H390.852V302.883H386.172ZM373.122 308.463V301.143H393.162V308.463H388.812V304.983H377.472V308.463H373.122ZM405.767 304.983V301.833L405.467 301.143V295.503C405.467 294.503 405.157 293.723 404.537 293.163C403.937 292.603 403.007 292.323 401.747 292.323C400.887 292.323 400.037 292.463 399.197 292.743C398.377 293.003 397.677 293.363 397.097 293.823L395.417 290.553C396.297 289.933 397.357 289.453 398.597 289.113C399.837 288.773 401.097 288.603 402.377 288.603C404.837 288.603 406.747 289.183 408.107 290.343C409.467 291.503 410.147 293.313 410.147 295.773V304.983H405.767ZM400.847 305.223C399.587 305.223 398.507 305.013 397.607 304.593C396.707 304.153 396.017 303.563 395.537 302.823C395.057 302.083 394.817 301.253 394.817 300.333C394.817 299.373 395.047 298.533 395.507 297.813C395.987 297.093 396.737 296.533 397.757 296.133C398.777 295.713 400.107 295.503 401.747 295.503H406.037V298.233H402.257C401.157 298.233 400.397 298.413 399.977 298.773C399.577 299.133 399.377 299.583 399.377 300.123C399.377 300.723 399.607 301.203 400.067 301.563C400.547 301.903 401.197 302.073 402.017 302.073C402.797 302.073 403.497 301.893 404.117 301.533C404.737 301.153 405.187 300.603 405.467 299.883L406.187 302.043C405.847 303.083 405.227 303.873 404.327 304.413C403.427 304.953 402.267 305.223 400.847 305.223ZM92.3426 341.983V325.843H100.593C102.613 325.843 104.193 326.213 105.333 326.953C106.473 327.673 107.043 328.693 107.043 330.013C107.043 331.333 106.503 332.373 105.423 333.133C104.363 333.873 102.953 334.243 101.193 334.243L101.673 333.163C103.633 333.163 105.093 333.523 106.053 334.243C107.033 334.963 107.523 336.013 107.523 337.393C107.523 338.813 106.983 339.933 105.903 340.753C104.823 341.573 103.173 341.983 100.953 341.983H92.3426ZM96.6326 338.803H100.563C101.423 338.803 102.063 338.663 102.483 338.383C102.923 338.083 103.143 337.633 103.143 337.033C103.143 336.413 102.943 335.963 102.543 335.683C102.143 335.383 101.513 335.233 100.653 335.233H96.6326V338.803ZM96.6326 332.473H100.173C100.993 332.473 101.603 332.323 102.003 332.023C102.423 331.723 102.633 331.293 102.633 330.733C102.633 330.153 102.423 329.723 102.003 329.443C101.603 329.163 100.993 329.023 100.173 329.023H96.6326V332.473ZM120.665 341.983V338.833L120.365 338.143V332.503C120.365 331.503 120.055 330.723 119.435 330.163C118.835 329.603 117.905 329.323 116.645 329.323C115.785 329.323 114.935 329.463 114.095 329.743C113.275 330.003 112.575 330.363 111.995 330.823L110.315 327.553C111.195 326.933 112.255 326.453 113.495 326.113C114.735 325.773 115.995 325.603 117.275 325.603C119.735 325.603 121.645 326.183 123.005 327.343C124.365 328.503 125.045 330.313 125.045 332.773V341.983H120.665ZM115.745 342.223C114.485 342.223 113.405 342.013 112.505 341.593C111.605 341.153 110.915 340.563 110.435 339.823C109.955 339.083 109.715 338.253 109.715 337.333C109.715 336.373 109.945 335.533 110.405 334.813C110.885 334.093 111.635 333.533 112.655 333.133C113.675 332.713 115.005 332.503 116.645 332.503H120.935V335.233H117.155C116.055 335.233 115.295 335.413 114.875 335.773C114.475 336.133 114.275 336.583 114.275 337.123C114.275 337.723 114.505 338.203 114.965 338.563C115.445 338.903 116.095 339.073 116.915 339.073C117.695 339.073 118.395 338.893 119.015 338.533C119.635 338.153 120.085 337.603 120.365 336.883L121.085 339.043C120.745 340.083 120.125 340.873 119.225 341.413C118.325 341.953 117.165 342.223 115.745 342.223ZM140.12 338.143L139.1 339.223V325.843H143.78V339.223L142.7 338.143H150.14L149.09 339.223V325.843H153.74V341.983H129.11V325.843H133.76V339.223L132.71 338.143H140.12ZM158.231 341.983V325.843H162.881V335.443L170.741 325.843H175.031V341.983H170.381V332.383L162.551 341.983H158.231ZM188.266 341.983V320.983H197.806C200.086 320.983 202.096 321.423 203.836 322.303C205.576 323.163 206.936 324.373 207.916 325.933C208.896 327.493 209.386 329.343 209.386 331.483C209.386 333.603 208.896 335.453 207.916 337.033C206.936 338.593 205.576 339.813 203.836 340.693C202.096 341.553 200.086 341.983 197.806 341.983H188.266ZM193.126 337.993H197.566C198.966 337.993 200.176 337.733 201.196 337.213C202.236 336.673 203.036 335.913 203.596 334.933C204.176 333.953 204.466 332.803 204.466 331.483C204.466 330.143 204.176 328.993 203.596 328.033C203.036 327.053 202.236 326.303 201.196 325.783C200.176 325.243 198.966 324.973 197.566 324.973H193.126V337.993ZM209.89 341.983L218.92 329.533V333.073L210.28 320.983H215.8L221.77 329.413L219.46 329.443L225.34 320.983H230.62L222.04 332.863V329.383L231.13 341.983H225.52L219.34 333.073H221.56L215.47 341.983H209.89ZM237.532 330.433H247.612V334.333H237.532V330.433ZM237.892 341.983H233.032V320.983H248.902V324.883H237.892V341.983ZM271.308 342.343C271.268 342.343 271.158 342.343 270.978 342.343C270.798 342.343 270.628 342.343 270.468 342.343C270.308 342.343 270.198 342.343 270.138 342.343C266.638 342.283 263.928 341.533 262.008 340.093C260.088 338.653 259.128 336.573 259.128 333.853C259.128 331.173 260.078 329.133 261.978 327.733C263.898 326.313 266.648 325.593 270.228 325.573C270.268 325.573 270.368 325.573 270.528 325.573C270.708 325.573 270.878 325.573 271.038 325.573C271.198 325.573 271.298 325.573 271.338 325.573C274.958 325.573 277.758 326.273 279.738 327.673C281.738 329.073 282.738 331.133 282.738 333.853C282.738 336.613 281.738 338.723 279.738 340.183C277.758 341.623 274.948 342.343 271.308 342.343ZM271.158 338.743C272.818 338.743 274.168 338.573 275.208 338.233C276.248 337.873 277.008 337.333 277.488 336.613C277.988 335.873 278.238 334.953 278.238 333.853C278.238 332.793 277.998 331.923 277.518 331.243C277.038 330.543 276.268 330.023 275.208 329.683C274.168 329.343 272.818 329.173 271.158 329.173C271.098 329.173 270.978 329.173 270.798 329.173C270.618 329.173 270.498 329.173 270.438 329.173C268.838 329.173 267.538 329.353 266.538 329.713C265.538 330.073 264.808 330.593 264.348 331.273C263.888 331.953 263.658 332.813 263.658 333.853C263.658 334.933 263.888 335.833 264.348 336.553C264.808 337.273 265.538 337.813 266.538 338.173C267.538 338.533 268.838 338.723 270.438 338.743C270.498 338.743 270.618 338.743 270.798 338.743C270.978 338.743 271.098 338.743 271.158 338.743ZM268.788 347.803V319.723H273.078V347.803H268.788ZM295.303 341.983V338.833L295.003 338.143V332.503C295.003 331.503 294.693 330.723 294.073 330.163C293.473 329.603 292.543 329.323 291.283 329.323C290.423 329.323 289.573 329.463 288.733 329.743C287.913 330.003 287.213 330.363 286.633 330.823L284.953 327.553C285.833 326.933 286.893 326.453 288.133 326.113C289.373 325.773 290.633 325.603 291.913 325.603C294.373 325.603 296.283 326.183 297.643 327.343C299.003 328.503 299.683 330.313 299.683 332.773V341.983H295.303ZM290.383 342.223C289.123 342.223 288.043 342.013 287.143 341.593C286.243 341.153 285.553 340.563 285.073 339.823C284.593 339.083 284.353 338.253 284.353 337.333C284.353 336.373 284.583 335.533 285.043 334.813C285.523 334.093 286.273 333.533 287.293 333.133C288.313 332.713 289.643 332.503 291.283 332.503H295.573V335.233H291.793C290.693 335.233 289.933 335.413 289.513 335.773C289.113 336.133 288.913 336.583 288.913 337.123C288.913 337.723 289.143 338.203 289.603 338.563C290.083 338.903 290.733 339.073 291.553 339.073C292.333 339.073 293.033 338.893 293.653 338.533C294.273 338.153 294.723 337.603 295.003 336.883L295.723 339.043C295.383 340.083 294.763 340.873 293.863 341.413C292.963 341.953 291.803 342.223 290.383 342.223ZM303.749 341.983V325.843H308.399V335.443L316.259 325.843H320.549V341.983H315.899V332.383L308.069 341.983H303.749ZM311.849 324.103C310.089 324.103 308.769 323.723 307.889 322.963C307.009 322.183 306.559 321.013 306.539 319.453H309.599C309.619 320.133 309.809 320.673 310.169 321.073C310.529 321.473 311.079 321.673 311.819 321.673C312.539 321.673 313.089 321.473 313.469 321.073C313.869 320.673 314.069 320.133 314.069 319.453H317.189C317.189 321.013 316.739 322.183 315.839 322.963C314.939 323.723 313.609 324.103 311.849 324.103ZM323.008 341.953L323.248 338.113C323.368 338.133 323.488 338.153 323.608 338.173C323.728 338.173 323.838 338.173 323.938 338.173C324.498 338.173 324.938 338.013 325.258 337.693C325.578 337.373 325.818 336.943 325.978 336.403C326.138 335.843 326.248 335.213 326.308 334.513C326.388 333.813 326.448 333.083 326.488 332.323L326.728 325.843H340.528V341.983H335.848V328.543L336.898 329.683H329.818L330.808 328.483L330.598 332.533C330.538 333.973 330.418 335.293 330.238 336.493C330.078 337.693 329.808 338.733 329.428 339.613C329.048 340.473 328.538 341.143 327.898 341.623C327.258 342.083 326.438 342.313 325.438 342.313C325.078 342.313 324.698 342.283 324.298 342.223C323.898 342.163 323.468 342.073 323.008 341.953ZM361.648 341.983V325.843H366.298V341.983H361.648ZM353.518 331.003C355.638 331.023 357.228 331.503 358.288 332.443C359.368 333.363 359.908 334.673 359.908 336.373C359.908 338.153 359.298 339.543 358.078 340.543C356.858 341.523 355.128 342.013 352.888 342.013L345.028 341.983V325.843H349.678V331.003H353.518ZM352.468 338.683C353.368 338.703 354.058 338.513 354.538 338.113C355.018 337.713 355.258 337.113 355.258 336.313C355.258 335.513 355.018 334.943 354.538 334.603C354.058 334.243 353.368 334.053 352.468 334.033L349.678 334.003V338.683H352.468Z" fill="#272727"/>
<path d="M229.216 217.966H188.135C179.06 217.966 171.703 210.609 171.703 201.534V193.317V86.5066C171.703 77.4313 179.06 70.0742 188.135 70.0742H237.432M286.73 119.371L237.432 70.0742M286.73 119.371H253.865C244.789 119.371 237.432 112.014 237.432 102.939V70.0742M286.73 119.371V144.02" stroke="#949494" stroke-width="7" stroke-linecap="round" stroke-linejoin="round"/>
<path d="M270.297 217.966L253.865 201.534M270.297 217.966V168.669M270.297 217.966L286.73 201.534" stroke="#0A2BA3" stroke-width="7" stroke-linecap="round" stroke-linejoin="round"/>
</svg>
